<svg xmlns="http://www.w3.org/2000/svg" viewBox="0 0 600 360" fill="none"><g stroke="#16764f" stroke-width="3" stroke-linecap="round" stroke-linejoin="round"><path d="M35 302h530M75 280v22m425-22v22" stroke="#8fc5aa"/><rect x="55" y="204" width="490" height="64" rx="17" fill="#c1e7d0"/><rect x="72" y="217" width="455" height="22" rx="11" fill="#11915b"/><path d="M102 203v-42h331v42M120 264v23h32v-23m300 0v23h32v-23"/><rect x="89" y="98" width="368" height="65" rx="8" fill="#e1f4e8"/><path d="M109 116h185m-185 13h185m-185 13h185" stroke="#91bda3"/><rect x="320" y="109" width="67" height="39" rx="4" fill="#173f2d"/><path d="M335 128h36" stroke="#57db98"/><circle cx="413" cy="126" r="12" fill="#00b66a"/><path d="M125 163v28h284v-28"/><path d="M144 178h242" stroke-width="13" stroke="#8dc9a7"/><g fill="#e8f7ed"><circle cx="150" cy="177" r="12"/><circle cx="215" cy="177" r="12"/><circle cx="280" cy="177" r="12"/><circle cx="345" cy="177" r="12"/><circle cx="400" cy="177" r="12"/></g><path d="M65 326h470M65 321v10m470-10v10M35 102v166m-5-166h10m-10 166h10" stroke="#8fc5aa" stroke-dasharray="5 7"/></g></svg>